HIERARCHY
ROOT Hips
{
	OFFSET 54.520500 -14.901514 85.712898
	CHANNELS 6 Xposition Yposition Zposition Xrotation Yrotation Zrotation
	JOINT spine
	{
		OFFSET 0.000000 -0.367607 6.392601
		CHANNELS 3 Xrotation Yrotation Zrotation
		JOINT spine1
		{
			OFFSET 0.000000 -0.000001 9.176109
			CHANNELS 3 Xrotation Yrotation Zrotation
			JOINT spine2
			{
				OFFSET 0.000000 -0.000002 8.792381
				CHANNELS 3 Xrotation Yrotation Zrotation
				JOINT Neck
				{
					OFFSET 0.000000 -1.076243 22.573700
					CHANNELS 3 Xrotation Yrotation Zrotation
					JOINT Head
					{
						OFFSET 0.000000 -0.000002 6.820114
						CHANNELS 3 Xrotation Yrotation Zrotation
						End Site
						{
							OFFSET 0.000000 5.444267 16.508499
						}
					}
				}
				JOINT RightShoulder
				{
					OFFSET -3.702209 0.515507 9.495087
					CHANNELS 3 Xrotation Yrotation Zrotation
					JOINT RightArm
					{
						OFFSET 0.000000 -0.000003 12.453705
						CHANNELS 3 Xrotation Yrotation Zrotation
						JOINT RightArmRoll
						{
							OFFSET 0.000000 -0.000001 6.286865
							CHANNELS 3 Xrotation Yrotation Zrotation
							JOINT RightForeArm
							{
								OFFSET 0.000000 -0.000003 18.311401
								CHANNELS 3 Xrotation Yrotation Zrotation
								JOINT RightForeArmRoll
								{
									OFFSET 0.000000 -0.000001 7.054825
									CHANNELS 3 Xrotation Yrotation Zrotation
									JOINT RightHand
									{
										OFFSET 0.000000 -0.000002 14.157501
										CHANNELS 3 Xrotation Yrotation Zrotation
										End Site
										{
											OFFSET 0.000000 0.000000 0.100006
										}
									}
								}
							}
						}
					}
				}
				JOINT LeftShoulder
				{
					OFFSET 3.702209 0.515507 9.495087
					CHANNELS 3 Xrotation Yrotation Zrotation
					JOINT LeftArm
					{
						OFFSET 0.000000 -0.000003 12.453705
						CHANNELS 3 Xrotation Yrotation Zrotation
						JOINT LeftArmRoll
						{
							OFFSET 0.000000 -0.000001 6.286865
							CHANNELS 3 Xrotation Yrotation Zrotation
							JOINT LeftForeArm
							{
								OFFSET 0.000000 -0.000003 18.311401
								CHANNELS 3 Xrotation Yrotation Zrotation
								JOINT LeftForeArmRoll
								{
									OFFSET 0.000000 -0.000001 7.054825
									CHANNELS 3 Xrotation Yrotation Zrotation
									JOINT LeftHand
									{
										OFFSET 0.000000 -0.000002 14.157501
										CHANNELS 3 Xrotation Yrotation Zrotation
										End Site
										{
											OFFSET 0.000000 0.000000 0.100006
										}
									}
								}
							}
						}
					}
				}
			}
		}
	}
	JOINT RightUpLeg
	{
		OFFSET -5.666161 0.871611 -1.039032
		CHANNELS 3 Xrotation Yrotation Zrotation
		JOINT RightUpLegRoll
		{
			OFFSET 0.000000 -0.000003 16.600502
			CHANNELS 3 Xrotation Yrotation Zrotation
			JOINT RightLeg
			{
				OFFSET 0.000000 0.000003 -20.557198
				CHANNELS 3 Xrotation Yrotation Zrotation
				JOINT RightLegRoll
				{
					OFFSET 0.000000 -0.000003 20.624397
					CHANNELS 3 Xrotation Yrotation Zrotation
					JOINT RightFoot
					{
						OFFSET 0.000000 -0.000003 17.166397
						CHANNELS 3 Xrotation Yrotation Zrotation
						JOINT RightToeBase
						{
							OFFSET 0.000000 -0.000003 14.350204
							CHANNELS 3 Xrotation Yrotation Zrotation
							End Site
							{
								OFFSET 0.006081 0.801060 6.949707
							}
						}
					}
				}
			}
		}
	}
	JOINT LeftUpLeg
	{
		OFFSET 5.666161 0.871611 -1.039032
		CHANNELS 3 Xrotation Yrotation Zrotation
		JOINT LeftUpLegRoll
		{
			OFFSET 0.000000 -0.000003 16.600601
			CHANNELS 3 Xrotation Yrotation Zrotation
			JOINT LeftLeg
			{
				OFFSET 0.000000 -0.000004 20.557098
				CHANNELS 3 Xrotation Yrotation Zrotation
				JOINT LeftLegRoll
				{
					OFFSET 0.000000 -0.000003 20.815102
					CHANNELS 3 Xrotation Yrotation Zrotation
					JOINT LeftFoot
					{
						OFFSET 0.000000 -0.000003 16.975708
						CHANNELS 3 Xrotation Yrotation Zrotation
						JOINT LeftToeBase
						{
							OFFSET 0.000000 -0.000003 14.350204
							CHANNELS 3 Xrotation Yrotation Zrotation
							End Site
							{
								OFFSET -0.027260 0.801060 6.949707
							}
						}
					}
				}
			}
		}
	}
}
MOTION
Frames: 9
Frame Time: 0.041667
54.037994 -14.334312 85.749107 -3.039093 1.872415 -4.544427 -1.091123 0.159648 -0.068372 1.804916 0.312681 -0.136924 3.449991 0.311029 -0.140774 11.871177 -7.212330 3.432343 7.184877 5.580564 3.408854 -19.348246 -24.682719 -23.095655 -118.299983 -135.879537 -72.713675 -0.000001 -0.000013 -0.000000 115.889541 -3.825190 9.712544 -0.000007 0.000001 -3.009522 -5.000240 -7.998746 0.000187 1.523699 56.050014 -2.193089 -33.617102 114.824878 29.533963 -0.000002 -0.000003 0.000002 5.225395 9.977504 0.100029 -0.000003 0.000000 3.000001 -5.000250 7.998811 -0.000160 0.960768 -176.444495 0.707005 -179.999991 0.000004 -1.108002 174.325648 -3.459010 -0.556481 -0.000001 -0.000001 0.056844 68.566985 6.901946 2.132923 25.456955 -7.355614 -0.000001 1.544015 173.262433 -0.804930 -0.000005 -0.000005 -1.105100 -7.606251 1.049010 0.610223 0.000002 -0.000001 -0.086162 70.227226 -6.578875 -2.880410 25.457158 7.355619 -0.000484 
54.040695 -14.344510 85.746017 -3.045717 1.883357 -4.549347 -1.089813 0.158529 -0.069416 1.806247 0.310776 -0.137895 3.451330 0.309112 -0.141735 11.860960 -7.184520 3.438615 7.192882 5.545796 3.418022 -19.322043 -24.747807 -23.055818 -118.285803 -135.879770 -72.543555 -0.000001 -0.000014 -0.000005 115.562443 -3.848887 9.716441 -0.000007 0.000001 -3.009542 -5.000237 -7.998743 0.000184 1.489899 56.040124 -2.154214 -33.583624 114.840260 29.535562 -0.000002 -0.000003 0.000002 5.254519 9.998167 0.095951 -0.000004 0.000000 3.000001 -5.000253 7.998812 -0.000160 0.967233 -176.454508 0.705684 -179.999991 0.000005 -1.108002 174.323476 -3.463971 -0.556109 -0.000000 -0.000001 0.056814 68.566534 6.901842 2.133431 25.456950 -7.355614 -0.000001 1.542563 173.251437 -0.810525 -0.000005 -0.000005 -1.104810 -7.628456 1.045794 0.611514 0.000001 -0.000001 -0.086392 70.238920 -6.575806 -2.888185 25.457157 7.355619 -0.000484 
54.047794 -14.341911 85.752899 -3.052516 1.893411 -4.553898 -1.088564 0.157555 -0.070401 1.807667 0.309155 -0.138824 3.452740 0.307483 -0.142657 11.849804 -7.159171 3.444616 7.200321 5.515462 3.426565 -19.296237 -24.812658 -23.016829 -118.270627 -135.879688 -72.374112 -0.000000 -0.000014 -0.000001 115.227340 -3.871900 9.716754 -0.000009 0.000003 -3.009563 -5.000244 -7.998741 0.000183 1.456629 56.030719 -2.115897 -33.551785 114.854917 29.537942 -0.000004 -0.000005 0.000002 5.283830 10.018122 0.091924 -0.000003 0.000000 3.000001 -5.000250 7.998812 -0.000160 0.974024 -176.463511 0.705190 -179.999991 0.000005 -1.108002 174.321536 -3.469929 -0.556817 -0.000001 -0.000001 0.056783 68.566090 6.901779 2.133946 25.456953 -7.355616 0.000001 1.541567 173.241437 -0.815450 -0.000005 -0.000005 -1.104521 -7.649881 1.042629 0.612748 0.000001 -0.000001 -0.086637 70.250435 -6.572866 -2.895388 25.457160 7.355620 -0.000484 
54.028496 -14.336512 85.751709 -3.059557 1.902427 -4.557953 -1.087393 0.156763 -0.071313 1.809176 0.307886 -0.139709 3.454248 0.306206 -0.143538 11.837730 -7.136950 3.450257 7.207060 5.490525 3.434275 -19.271065 -24.877257 -22.978780 -118.253906 -135.879141 -72.206335 -0.000001 -0.000015 -0.000004 114.884793 -3.893750 9.712420 -0.000006 0.000002 -3.009572 -5.000238 -7.998744 0.000186 1.424205 56.021905 -2.078511 -33.521803 114.868892 29.541070 -0.000002 -0.000004 0.000002 5.313288 10.037172 0.087951 -0.000004 0.000000 3.000000 -5.000249 7.998811 -0.000160 0.981219 -176.471516 0.705677 -179.999991 0.000005 -1.108002 174.319910 -3.474894 -0.556399 -0.000001 -0.000001 0.056751 68.565544 6.901704 2.134366 25.456957 -7.355617 0.000000 1.541078 173.233432 -0.819604 -0.000005 -0.000005 -1.104240 -7.670460 1.039567 0.613918 0.000001 -0.000001 -0.086901 70.261596 -6.570111 -2.902147 25.457162 7.355620 -0.000485 
54.032196 -14.339310 85.745705 -3.066856 1.910243 -4.561431 -1.086323 0.156190 -0.072135 1.810796 0.307039 -0.140545 3.455879 0.305349 -0.144371 11.824543 -7.118495 3.455417 7.212962 5.471939 3.441001 -19.246582 -24.941382 -22.941844 -118.235643 -135.877871 -72.042124 -0.000001 -0.000013 -0.000001 114.535340 -3.913495 9.703278 -0.000008 0.000001 -3.009590 -5.000241 -7.998743 0.000187 1.392948 56.013661 -2.042427 -33.492458 114.883044 29.543355 -0.000002 -0.000004 0.000003 5.342845 10.055025 0.084073 -0.000002 0.000000 2.999999 -5.000252 7.998811 -0.000161 0.988898 -176.477513 0.707317 -179.999991 0.000005 -1.108002 174.318599 -3.480854 -0.556074 -0.000000 -0.000001 0.056718 68.565093 6.901601 2.134876 25.456957 -7.355613 -0.000001 1.541148 173.227435 -0.822905 -0.000005 -0.000004 -1.103960 -7.690106 1.036655 0.615019 0.000001 -0.000001 -0.087189 70.272299 -6.567576 -2.908472 25.457162 7.355621 -0.000484 
54.024097 -14.331314 85.746506 -3.074481 1.916689 -4.564221 -1.085353 0.155874 -0.072852 1.812546 0.306678 -0.141329 3.457618 0.304982 -0.145154 11.810367 -7.104469 3.460026 7.217893 5.460668 3.446555 -19.223135 -25.004993 -22.906378 -118.215330 -135.875972 -71.882612 -0.000001 -0.000014 -0.000003 114.179446 -3.930725 9.687256 -0.000008 -0.000001 -3.009610 -5.000243 -7.998744 0.000187 1.363174 56.006086 -2.008015 -33.463955 114.897401 29.544782 -0.000003 -0.000004 0.000002 5.372459 10.071677 0.080298 -0.000001 0.000000 3.000000 -5.000248 7.998811 -0.000160 0.997135 -176.480518 0.710287 -179.999991 0.000005 -1.108002 174.317684 -3.486829 -0.556723 -0.000001 -0.000001 0.056685 68.564526 6.901493 2.135391 25.456955 -7.355617 0.000000 1.541828 173.222436 -0.825304 -0.000005 -0.000004 -1.103680 -7.708742 1.033942 0.616050 0.000002 -0.000001 -0.087506 70.282633 -6.565194 -2.914347 25.457162 7.355620 -0.000484 
54.032696 -14.332414 85.741898 -3.082506 1.921638 -4.566435 -1.084500 0.155812 -0.073495 1.814436 0.306824 -0.142069 3.459509 0.305121 -0.145898 11.794702 -7.095291 3.464026 7.222185 5.457679 3.450818 -19.200000 -25.068483 -22.871544 -118.194853 -135.873226 -71.727061 -0.000001 -0.000014 -0.000003 113.815308 -3.946689 9.665573 -0.000006 0.000000 -3.009630 -5.000241 -7.998742 0.000187 1.334798 55.999000 -1.975185 -33.436887 114.910966 29.546623 -0.000003 -0.000005 0.000002 5.402405 10.087325 0.076579 -0.000004 0.000000 3.000000 -5.000249 7.998811 -0.000159 1.006006 -176.482553 0.714794 -179.999991 0.000005 -1.108002 174.317137 -3.493786 -0.556450 -0.000001 -0.000001 0.056652 68.563966 6.901382 2.135704 25.456957 -7.355616 -0.000000 1.543368 173.220428 -0.826454 -0.000005 -0.000005 -1.103410 -7.726177 1.031195 0.616985 0.000001 -0.000001 -0.087853 70.292537 -6.563132 -2.919403 25.457162 7.355620 -0.000485 
54.033596 -14.335312 85.742004 -3.090966 1.925137 -4.568262 -1.083754 0.155958 -0.074100 1.816465 0.307412 -0.142778 3.461548 0.305704 -0.146613 11.777341 -7.090523 3.467543 7.226262 5.462590 3.453884 -19.176910 -25.132274 -22.836773 -118.175728 -135.869716 -71.573224 -0.000001 -0.000014 -0.000002 113.441266 -3.961390 9.643164 -0.000009 -0.000002 -3.009649 -5.000242 -7.998740 0.000185 1.307394 55.992388 -1.943449 -33.410451 114.924708 29.548573 -0.000003 -0.000004 0.000003 5.432943 10.102556 0.072868 -0.000003 0.000001 3.000001 -5.000251 7.998811 -0.000160 1.015482 -176.480545 0.720896 -179.999991 0.000005 -1.108001 174.316946 -3.501751 -0.556256 -0.000001 -0.000001 0.056618 68.563310 6.901303 2.136030 25.456953 -7.355615 0.000000 1.545896 173.219444 -0.826287 -0.000005 -0.000005 -1.103160 -7.742342 1.028212 0.617821 0.000001 -0.000001 -0.088229 70.302010 -6.561356 -2.923733 25.457160 7.355620 -0.000484 
54.022495 -14.334513 85.739998 -3.099786 1.927368 -4.569734 -1.083094 0.156286 -0.074669 1.818626 0.308383 -0.143454 3.463699 0.306674 -0.147297 11.758566 -7.089524 3.470671 7.230080 5.474283 3.455938 -19.153852 -25.196260 -22.802214 -118.157451 -135.865699 -71.420283 -0.000002 -0.000014 -0.000003 113.057444 -3.975438 9.618197 -0.000008 -0.000002 -3.009671 -5.000241 -7.998741 0.000183 1.280758 55.986166 -1.912557 -33.384247 114.938519 29.550226 -0.000003 -0.000003 0.000003 5.464015 10.117280 0.069163 -0.000004 0.000000 3.000001 -5.000250 7.998811 -0.000162 1.025474 -176.477554 0.728326 -179.999991 0.000005 -1.108002 174.317083 -3.509704 -0.557038 -0.000001 -0.000001 0.056583 68.562552 6.901214 2.136361 25.456953 -7.355615 -0.000000 1.549263 173.221452 -0.824918 -0.000005 -0.000005 -1.102930 -7.757386 1.025035 0.618568 0.000002 -0.000001 -0.088627 70.311217 -6.559771 -2.927514 25.457158 7.355619 -0.000484 
